<svg width="48" height="48" viewBox="0 0 48 48" fill="none" xmlns="http://www.w3.org/2000/svg">
<path d="M38 15.9995H34.38C33.48 14.4395 32.24 13.0995 30.74 12.0795L32.6 10.2195C33.38 9.43945 33.38 8.17945 32.6 7.39945C31.82 6.61945 30.56 6.61945 29.78 7.39945L26.84 10.3395C25.92 10.1195 24.98 9.99945 24 9.99945C23.02 9.99945 22.08 10.1195 21.18 10.3395L18.22 7.39945C17.44 6.61945 16.18 6.61945 15.4 7.39945C14.62 8.17945 14.62 9.43945 15.4 10.2195L17.24 12.0795C15.76 13.0995 14.52 14.4395 13.62 15.9995H10C8.9 15.9995 8 16.8995 8 17.9995C8 19.0995 8.9 19.9995 10 19.9995H12.18C12.08 20.6595 12 21.3195 12 21.9995V23.9995H10C8.9 23.9995 8 24.8995 8 25.9995C8 27.0995 8.9 27.9995 10 27.9995H12V29.9995C12 30.6795 12.08 31.3395 12.18 31.9995H10C8.9 31.9995 8 32.8995 8 33.9995C8 35.0995 8.9 35.9995 10 35.9995H13.62C15.7 39.5795 19.56 41.9995 24 41.9995C28.44 41.9995 32.3 39.5795 34.38 35.9995H38C39.1 35.9995 40 35.0995 40 33.9995C40 32.8995 39.1 31.9995 38 31.9995H35.82C35.92 31.3395 36 30.6795 36 29.9995V27.9995H38C39.1 27.9995 40 27.0995 40 25.9995C40 24.8995 39.1 23.9995 38 23.9995H36V21.9995C36 21.3195 35.92 20.6595 35.82 19.9995H38C39.1 19.9995 40 19.0995 40 17.9995C40 16.8995 39.1 15.9995 38 15.9995ZM26 31.9995H22C20.9 31.9995 20 31.0995 20 29.9995C20 28.8995 20.9 27.9995 22 27.9995H26C27.1 27.9995 28 28.8995 28 29.9995C28 31.0995 27.1 31.9995 26 31.9995ZM26 23.9995H22C20.9 23.9995 20 23.0995 20 21.9995C20 20.8995 20.9 19.9995 22 19.9995H26C27.1 19.9995 28 20.8995 28 21.9995C28 23.0995 27.1 23.9995 26 23.9995Z" fill="#3C77F2"/>
</svg>
