<svg width="24" height="24" viewBox="0 0 24 24" fill="none" xmlns="http://www.w3.org/2000/svg">
<path d="M12 8.616L19.2018 1.41421C19.9828 0.633165 21.2492 0.633164 22.0302 1.41421L22.5858 1.96979C23.3668 2.75083 23.3668 4.01716 22.5858 4.79821L15.384 12L22.5858 19.2018C23.3668 19.9828 23.3668 21.2492 22.5858 22.0302L22.0302 22.5858C21.2492 23.3668 19.9828 23.3668 19.2018 22.5858L12 15.384L4.79821 22.5858C4.01716 23.3668 2.75084 23.3668 1.96979 22.5858L1.41421 22.0302C0.633165 21.2492 0.633164 19.9828 1.41421 19.2018L8.616 12L1.41421 4.79821C0.633165 4.01716 0.633164 2.75084 1.41421 1.96979L1.96979 1.41421C2.75083 0.633165 4.01716 0.633164 4.79821 1.41421L12 8.616Z" fill="#C0C5CB"/>
</svg>
